<svg width="167" height="35" viewBox="0 0 167 35" fill="none" xmlns="http://www.w3.org/2000/svg">
<path fill-rule="evenodd" clip-rule="evenodd" d="M0.632969 5.8262C0 7.35432 0 9.29155 0 13.166V21.4814C0 25.3558 0 27.2931 0.632969 28.8212C1.47693 30.8587 3.09571 32.4775 5.13321 33.3214C6.66133 33.9544 8.59856 33.9544 12.473 33.9544H20.7884C24.6629 33.9544 26.6001 33.9544 28.1282 33.3214C30.1657 32.4775 31.7845 30.8587 32.6284 28.8212C33.2614 27.2931 33.2614 25.3558 33.2614 21.4814V13.166C33.2614 9.29155 33.2614 7.35432 32.6284 5.8262C31.7845 3.7887 30.1657 2.16992 28.1282 1.32596C26.6001 0.692993 24.6629 0.692993 20.7884 0.692993H12.473C8.59856 0.692993 6.66133 0.692993 5.13321 1.32596C3.09571 2.16992 1.47693 3.7887 0.632969 5.8262ZM19.1819 9.7994C19.2176 9.67002 19.0669 9.57051 18.962 9.65415L9.67964 17.05C9.59106 17.1205 9.61996 17.2618 9.72914 17.292L14.6771 18.6573C14.7508 18.6776 14.7941 18.7539 14.7738 18.8277L13.2037 24.5178C13.168 24.6472 13.3187 24.7467 13.4236 24.663L22.706 17.2672C22.7946 17.1966 22.7657 17.0554 22.6565 17.0252L17.7086 15.6599C17.6348 15.6396 17.5915 15.5633 17.6118 15.4895L19.1819 9.7994Z" fill="white"/>
<path d="M46.1006 28V7.84157H50.3626V16.1589H59.0146V7.84157H63.2667V28H59.0146V19.6728H50.3626V28H46.1006ZM66.3555 28V12.8812H70.5486V28H66.3555ZM68.4619 10.9323C67.8385 10.9323 67.3037 10.7256 66.8574 10.3122C66.4178 9.89219 66.198 9.3902 66.198 8.80618C66.198 8.22873 66.4178 7.7333 66.8574 7.31989C67.3037 6.89992 67.8385 6.68994 68.4619 6.68994C69.0852 6.68994 69.6168 6.89992 70.0564 7.31989C70.5026 7.7333 70.7257 8.22873 70.7257 8.80618C70.7257 9.3902 70.5026 9.89219 70.0564 10.3122C69.6168 10.7256 69.0852 10.9323 68.4619 10.9323ZM73.561 33.6696V12.8812H77.6951V15.4207H77.8821C78.0658 15.0138 78.3316 14.6004 78.6794 14.1805C79.0337 13.7539 79.493 13.3996 80.0574 13.1174C80.6283 12.8287 81.337 12.6843 82.1835 12.6843C83.2859 12.6843 84.303 12.973 85.2348 13.5505C86.1666 14.1214 86.9114 14.9843 87.4691 16.1392C88.0269 17.2876 88.3058 18.7279 88.3058 20.4603C88.3058 22.1467 88.0335 23.5707 87.4888 24.7321C86.9507 25.887 86.2158 26.7631 85.284 27.3602C84.3588 27.9508 83.322 28.2461 82.1736 28.2461C81.3599 28.2461 80.6676 28.1116 80.0968 27.8425C79.5324 27.5735 79.0698 27.2355 78.7089 26.8287C78.348 26.4153 78.0724 25.9986 77.8821 25.5786H77.7541V33.6696H73.561ZM77.6655 20.4406C77.6655 21.3396 77.7902 22.1237 78.0396 22.7931C78.2889 23.4624 78.6498 23.9841 79.1223 24.3581C79.5948 24.7256 80.1689 24.9093 80.8448 24.9093C81.5273 24.9093 82.1047 24.7223 82.5772 24.3483C83.0496 23.9677 83.4073 23.4427 83.6501 22.7734C83.8994 22.0975 84.0241 21.3199 84.0241 20.4406C84.0241 19.5678 83.9027 18.8001 83.6599 18.1373C83.4171 17.4746 83.0595 16.9562 82.587 16.5821C82.1146 16.2081 81.5338 16.0211 80.8448 16.0211C80.1624 16.0211 79.5849 16.2015 79.1125 16.5625C78.6466 16.9234 78.2889 17.4352 78.0396 18.098C77.7902 18.7607 77.6655 19.5416 77.6655 20.4406ZM94.9478 19.2594V28H90.7547V7.84157H94.8297V15.5486H95.0069C95.3481 14.6562 95.8993 13.9573 96.6605 13.4521C97.4217 12.9402 98.3765 12.6843 99.5248 12.6843C100.575 12.6843 101.49 12.914 102.271 13.3733C103.058 13.8261 103.669 14.479 104.102 15.3321C104.541 16.1786 104.758 17.1924 104.751 18.3736V28H100.558V19.1216C100.565 18.1898 100.329 17.4647 99.8497 16.9463C99.3772 16.4279 98.7144 16.1687 97.8614 16.1687C97.2905 16.1687 96.7852 16.2901 96.3456 16.5329C95.9125 16.7757 95.5712 17.1301 95.3219 17.596C95.0791 18.0553 94.9544 18.6098 94.9478 19.2594ZM114.536 28.2953C113.007 28.2953 111.685 27.9705 110.569 27.3208C109.46 26.6646 108.604 25.7525 108 24.5845C107.396 23.4099 107.095 22.0483 107.095 20.4996C107.095 18.9379 107.396 17.573 108 16.405C108.604 15.2304 109.46 14.3183 110.569 13.6686C111.685 13.0124 113.007 12.6843 114.536 12.6843C116.065 12.6843 117.384 13.0124 118.493 13.6686C119.608 14.3183 120.468 15.2304 121.072 16.405C121.675 17.573 121.977 18.9379 121.977 20.4996C121.977 22.0483 121.675 23.4099 121.072 24.5845C120.468 25.7525 119.608 26.6646 118.493 27.3208C117.384 27.9705 116.065 28.2953 114.536 28.2953ZM114.556 25.0471C115.251 25.0471 115.832 24.8502 116.298 24.4565C116.764 24.0562 117.115 23.5116 117.351 22.8226C117.594 22.1336 117.715 21.3494 117.715 20.4701C117.715 19.5908 117.594 18.8067 117.351 18.1176C117.115 17.4286 116.764 16.884 116.298 16.4837C115.832 16.0834 115.251 15.8833 114.556 15.8833C113.853 15.8833 113.263 16.0834 112.784 16.4837C112.311 16.884 111.954 17.4286 111.711 18.1176C111.475 18.8067 111.357 19.5908 111.357 20.4701C111.357 21.3494 111.475 22.1336 111.711 22.8226C111.954 23.5116 112.311 24.0562 112.784 24.4565C113.263 24.8502 113.853 25.0471 114.556 25.0471ZM128.55 19.2594V28H124.357V12.8812H128.353V15.5486H128.531C128.865 14.6693 129.426 13.9737 130.214 13.4619C131.001 12.9435 131.956 12.6843 133.078 12.6843C134.128 12.6843 135.043 12.914 135.824 13.3733C136.605 13.8327 137.212 14.4889 137.645 15.3419C138.078 16.1884 138.295 17.199 138.295 18.3736V28H134.102V19.1216C134.108 18.1964 133.872 17.4746 133.393 16.9562C132.914 16.4312 132.255 16.1687 131.415 16.1687C130.85 16.1687 130.352 16.2901 129.918 16.5329C129.492 16.7757 129.157 17.1301 128.915 17.596C128.678 18.0553 128.557 18.6098 128.55 19.2594ZM141.253 28V12.8812H145.446V28H141.253ZM143.36 10.9323C142.736 10.9323 142.201 10.7256 141.755 10.3122C141.316 9.89219 141.096 9.3902 141.096 8.80618C141.096 8.22873 141.316 7.7333 141.755 7.31989C142.201 6.89992 142.736 6.68994 143.36 6.68994C143.983 6.68994 144.514 6.89992 144.954 7.31989C145.4 7.7333 145.623 8.22873 145.623 8.80618C145.623 9.3902 145.4 9.89219 144.954 10.3122C144.514 10.7256 143.983 10.9323 143.36 10.9323ZM155.29 28.2953C153.741 28.2953 152.409 27.9672 151.294 27.311C150.185 26.6482 149.331 25.7296 148.734 24.555C148.144 23.3804 147.848 22.0286 147.848 20.4996C147.848 18.951 148.147 17.5927 148.744 16.4247C149.348 15.2501 150.204 14.3347 151.313 13.6785C152.422 13.0157 153.741 12.6843 155.27 12.6843C156.589 12.6843 157.744 12.9238 158.735 13.4029C159.726 13.8819 160.51 14.5545 161.087 15.4207C161.665 16.2868 161.983 17.304 162.042 18.472H158.085C157.974 17.7174 157.678 17.1104 157.199 16.651C156.727 16.1851 156.107 15.9522 155.339 15.9522C154.689 15.9522 154.122 16.1294 153.636 16.4837C153.157 16.8315 152.783 17.34 152.514 18.0094C152.245 18.6787 152.11 19.4891 152.11 20.4406C152.11 21.4052 152.242 22.2254 152.504 22.9013C152.773 23.5772 153.151 24.0923 153.636 24.4467C154.122 24.801 154.689 24.9782 155.339 24.9782C155.818 24.9782 156.248 24.8798 156.628 24.6829C157.016 24.4861 157.334 24.2006 157.583 23.8266C157.839 23.446 158.006 22.9899 158.085 22.4584H162.042C161.976 23.6133 161.661 24.6304 161.097 25.5097C160.539 26.3825 159.768 27.0649 158.784 27.5571C157.8 28.0492 156.635 28.2953 155.29 28.2953Z" fill="white"/>
</svg>
